<!-- <svg xmlns="http://www.w3.org/2000/svg" xmlns:xlink="http://www.w3.org/1999/xlink" xmlns:serif="http://www.serif.com/" viewBox="0 0 48 60" version="1.1" xml:space="preserve" style="" x="0px" y="0px" fill-rule="evenodd" clip-rule="evenodd" stroke-linejoin="round" stroke-miterlimit="2"><g transform="matrix(1,0,0,1,-432,-48)"><g><path d="M442.707,52.121L449.983,59.397C450.353,59.767 450.375,60.359 450.035,60.755C448.786,62.213 446.881,64.436 445.907,65.616C445.328,66.297 445.087,67.204 445.251,68.083C445.26,68.131 445.273,68.179 445.289,68.225C445.773,69.634 447.174,72.589 451.293,76.707C455.536,80.951 459.077,82.319 460.738,82.793C460.778,82.804 460.819,82.813 460.86,82.819C461.805,82.965 462.763,82.651 463.439,81.975C463.439,81.975 467.293,78.121 467.293,78.121C467.48,77.934 467.735,77.828 468,77.828C468.265,77.828 468.52,77.934 468.707,78.121L475.879,85.293C476.066,85.48 476.172,85.735 476.172,86C476.172,86.265 476.066,86.52 475.879,86.707C475.879,86.707 475.879,86.707 475.879,86.707C474.836,87.749 473.384,89.202 472.104,90.472C472.103,90.473 472.102,90.474 472.101,90.475C470.407,92.168 467.965,92.877 465.629,92.354C461.155,91.295 453.934,88.52 446.707,81.293C439.48,74.066 436.705,66.845 435.638,62.372C435.115,60.033 435.825,57.589 437.52,55.894L441.293,52.121C441.48,51.934 441.735,51.828 442,51.828C442.265,51.828 442.52,51.934 442.707,52.121Z"/></g></g><text x="0" y="63" fill="currentColor" font-size="5px" font-weight="bold" font-family="'Helvetica Neue', Helvetica, Arial-Unicode, Arial, Sans-serif">Created by Mada Creative</text><text x="0" y="68" fill="currentColor" font-size="5px" font-weight="bold" font-family="'Helvetica Neue', Helvetica, Arial-Unicode, Arial, Sans-serif">from the Noun Project</text></svg> -->

<svg xmlns="http://www.w3.org/2000/svg" xmlns:xlink="http://www.w3.org/1999/xlink" xmlns:serif="http://www.serif.com/" viewBox="0 0 48 60" version="1.1" xml:space="preserve" style="" x="0px" y="0px" fill-rule="evenodd" clip-rule="evenodd" stroke-linejoin="round" stroke-miterlimit="2">
   <g transform="matrix(1,0,0,1,-432,-48)">
      <g>
         <path d="M442.707,52.121L449.983,59.397C450.353,59.767 450.375,60.359 450.035,60.755C448.786,62.213 446.881,64.436 445.907,65.616C445.328,66.297 445.087,67.204 445.251,68.083C445.26,68.131 445.273,68.179 445.289,68.225C445.773,69.634 447.174,72.589 451.293,76.707C455.536,80.951 459.077,82.319 460.738,82.793C460.778,82.804 460.819,82.813 460.86,82.819C461.805,82.965 462.763,82.651 463.439,81.975C463.439,81.975 467.293,78.121 467.293,78.121C467.48,77.934 467.735,77.828 468,77.828C468.265,77.828 468.52,77.934 468.707,78.121L475.879,85.293C476.066,85.48 476.172,85.735 476.172,86C476.172,86.265 476.066,86.52 475.879,86.707C475.879,86.707 475.879,86.707 475.879,86.707C474.836,87.749 473.384,89.202 472.104,90.472C472.103,90.473 472.102,90.474 472.101,90.475C470.407,92.168 467.965,92.877 465.629,92.354C461.155,91.295 453.934,88.52 446.707,81.293C439.48,74.066 436.705,66.845 435.638,62.372C435.115,60.033 435.825,57.589 437.52,55.894L441.293,52.121C441.48,51.934 441.735,51.828 442,51.828C442.265,51.828 442.52,51.934 442.707,52.121Z"/>
      </g>
   </g>
</svg>
