<svg width="16" height="22" viewBox="0 0 16 22" fill="none" xmlns="http://www.w3.org/2000/svg">
<path d="M7.89415 21.4571L7.89404 21.457C7.752 21.327 5.88938 19.6009 4.06611 17.1083C2.2306 14.599 0.5 11.3997 0.5 8.30958C0.5 3.98529 3.88316 0.5 8 0.5C12.1168 0.5 15.5 3.98529 15.5 8.30958C15.5 11.3997 13.7694 14.599 11.9339 17.1084C10.1157 19.5942 8.25834 21.3179 8.10658 21.4574C8.07288 21.4877 8.03526 21.5 8 21.5C7.96471 21.5 7.92753 21.4877 7.89415 21.4571ZM3.05556 8.25C3.05556 11.0388 5.2588 13.3333 8 13.3333C10.7412 13.3333 12.9444 11.0388 12.9444 8.25C12.9444 5.46122 10.7412 3.16667 8 3.16667C5.2588 3.16667 3.05556 5.46122 3.05556 8.25Z" stroke="black"/>
</svg>
